# xmcd
#
# Track frame offsets:
#	150
#	13835
#	28450
#	50495
#
# Disc length: 964 seconds
# Revision: 0
# Processed by: cddbd v1.5.2PL0 Copyright (c) Steve Scherf et al.
# Submitted via: dBpowerAMP V12.0
#
DISCID=3203c204
DTITLE=Trix - Bomb Bomb
DYEAR=2001
DGENRE=Dance
TTITLE0=Bomb Bomb (Radio Mix)
TTITLE1=Bomb Bomb (Original Radio Mix)
TTITLE2=Bomb Bomb (Extended Mix)
TTITLE3=Bomb Bomb (Original Extended Mix)
EXTD=
EXTT0=
EXTT1=
EXTT2=
EXTT3=
PLAYORDER=
